<mxfile host="Electron" agent="Mozilla/5.0 (Windows NT 10.0; Win64; x64) AppleWebKit/537.36 (KHTML, like Gecko) draw.io/25.0.2 Chrome/128.0.6613.186 Electron/32.2.5 Safari/537.36" version="25.0.2">
  <diagram name="Page-1" id="13e1069c-82ec-6db2-03f1-153e76fe0fe0">
    <mxGraphModel dx="1038" dy="615" grid="1" gridSize="10" guides="1" tooltips="1" connect="1" arrows="1" fold="1" page="1" pageScale="1" pageWidth="1100" pageHeight="850" background="none" math="0" shadow="0">
      <root>
        <mxCell id="0" />
        <mxCell id="1" parent="0" />
        <mxCell id="yz5PM-ehlpjcGa94JdRu-10" value="" style="rounded=0;whiteSpace=wrap;html=1;" vertex="1" parent="1">
          <mxGeometry x="390" y="220" width="400" height="160" as="geometry" />
        </mxCell>
        <mxCell id="yz5PM-ehlpjcGa94JdRu-11" value="" style="rounded=0;whiteSpace=wrap;html=1;" vertex="1" parent="1">
          <mxGeometry x="390" y="380" width="400" height="160" as="geometry" />
        </mxCell>
        <mxCell id="yz5PM-ehlpjcGa94JdRu-13" style="edgeStyle=orthogonalEdgeStyle;rounded=0;orthogonalLoop=1;jettySize=auto;html=1;exitX=0.5;exitY=0.5;exitDx=0;exitDy=0;exitPerimeter=0;" edge="1" parent="1" source="yz5PM-ehlpjcGa94JdRu-1" target="yz5PM-ehlpjcGa94JdRu-4">
          <mxGeometry relative="1" as="geometry" />
        </mxCell>
        <mxCell id="yz5PM-ehlpjcGa94JdRu-14" style="edgeStyle=orthogonalEdgeStyle;rounded=0;orthogonalLoop=1;jettySize=auto;html=1;exitX=0.5;exitY=0.5;exitDx=0;exitDy=0;exitPerimeter=0;" edge="1" parent="1" source="yz5PM-ehlpjcGa94JdRu-1" target="yz5PM-ehlpjcGa94JdRu-3">
          <mxGeometry relative="1" as="geometry" />
        </mxCell>
        <mxCell id="yz5PM-ehlpjcGa94JdRu-15" style="edgeStyle=orthogonalEdgeStyle;rounded=0;orthogonalLoop=1;jettySize=auto;html=1;exitX=0.5;exitY=0.5;exitDx=0;exitDy=0;exitPerimeter=0;entryX=0;entryY=0.5;entryDx=0;entryDy=0;" edge="1" parent="1" source="yz5PM-ehlpjcGa94JdRu-1" target="yz5PM-ehlpjcGa94JdRu-12">
          <mxGeometry relative="1" as="geometry" />
        </mxCell>
        <mxCell id="yz5PM-ehlpjcGa94JdRu-1" value="&lt;div&gt;Гость&lt;/div&gt;" style="shape=umlActor;verticalLabelPosition=bottom;verticalAlign=top;html=1;outlineConnect=0;" vertex="1" parent="1">
          <mxGeometry x="440" y="270" width="30" height="60" as="geometry" />
        </mxCell>
        <mxCell id="yz5PM-ehlpjcGa94JdRu-19" style="edgeStyle=orthogonalEdgeStyle;rounded=0;orthogonalLoop=1;jettySize=auto;html=1;exitX=0.5;exitY=0.5;exitDx=0;exitDy=0;exitPerimeter=0;entryX=0;entryY=0.5;entryDx=0;entryDy=0;" edge="1" parent="1" source="yz5PM-ehlpjcGa94JdRu-6" target="yz5PM-ehlpjcGa94JdRu-16">
          <mxGeometry relative="1" as="geometry" />
        </mxCell>
        <mxCell id="yz5PM-ehlpjcGa94JdRu-20" style="edgeStyle=orthogonalEdgeStyle;rounded=0;orthogonalLoop=1;jettySize=auto;html=1;exitX=0.5;exitY=0.5;exitDx=0;exitDy=0;exitPerimeter=0;entryX=0;entryY=0.25;entryDx=0;entryDy=0;" edge="1" parent="1" source="yz5PM-ehlpjcGa94JdRu-6" target="yz5PM-ehlpjcGa94JdRu-17">
          <mxGeometry relative="1" as="geometry" />
        </mxCell>
        <mxCell id="yz5PM-ehlpjcGa94JdRu-21" style="edgeStyle=orthogonalEdgeStyle;rounded=0;orthogonalLoop=1;jettySize=auto;html=1;exitX=0.5;exitY=0.5;exitDx=0;exitDy=0;exitPerimeter=0;entryX=0;entryY=0.5;entryDx=0;entryDy=0;" edge="1" parent="1" source="yz5PM-ehlpjcGa94JdRu-6" target="yz5PM-ehlpjcGa94JdRu-18">
          <mxGeometry relative="1" as="geometry" />
        </mxCell>
        <mxCell id="yz5PM-ehlpjcGa94JdRu-6" value="Авторизованный&lt;div&gt;пользователь&lt;/div&gt;" style="shape=umlActor;verticalLabelPosition=bottom;verticalAlign=top;html=1;outlineConnect=0;" vertex="1" parent="1">
          <mxGeometry x="440" y="430" width="30" height="60" as="geometry" />
        </mxCell>
        <mxCell id="yz5PM-ehlpjcGa94JdRu-3" value="Регистрация" style="rounded=0;whiteSpace=wrap;html=1;" vertex="1" parent="1">
          <mxGeometry x="515" y="310" width="110" height="50" as="geometry" />
        </mxCell>
        <mxCell id="yz5PM-ehlpjcGa94JdRu-4" value="Вход" style="rounded=0;whiteSpace=wrap;html=1;" vertex="1" parent="1">
          <mxGeometry x="515" y="240" width="110" height="50" as="geometry" />
        </mxCell>
        <mxCell id="yz5PM-ehlpjcGa94JdRu-12" value="Просмотр новостей" style="rounded=0;whiteSpace=wrap;html=1;" vertex="1" parent="1">
          <mxGeometry x="640" y="275" width="110" height="50" as="geometry" />
        </mxCell>
        <mxCell id="yz5PM-ehlpjcGa94JdRu-16" value="Добавить новость" style="rounded=0;whiteSpace=wrap;html=1;" vertex="1" parent="1">
          <mxGeometry x="512.5" y="400" width="115" height="50" as="geometry" />
        </mxCell>
        <mxCell id="yz5PM-ehlpjcGa94JdRu-17" value="Редактировать новость" style="rounded=0;whiteSpace=wrap;html=1;" vertex="1" parent="1">
          <mxGeometry x="512.5" y="480" width="115" height="50" as="geometry" />
        </mxCell>
        <mxCell id="yz5PM-ehlpjcGa94JdRu-18" value="Удалить новость" style="rounded=0;whiteSpace=wrap;html=1;" vertex="1" parent="1">
          <mxGeometry x="637.5" y="435" width="115" height="50" as="geometry" />
        </mxCell>
      </root>
    </mxGraphModel>
  </diagram>
</mxfile>
